# AST/ASF file generated using VICON BodyLanguage
# -----------------------------------------------
:version 1.10
:name VICON
:units
  mass 1.0
  length 0.45
  angle deg
:documentation
   .ast/.asf automatically generated from VICON data using
   VICON BodyBuilder and BodyLanguage model FoxedUp or BRILLIANT.MOD
:root
   order TX TY TZ RX RY RZ
   axis XYZ
   position 0 0 0  
   orientation 0 0 0 
:bonedata
  begin
     id 1 
     name lhipjoint
     direction 0.567725 -0.736092 0.368589 
     length 2.42353 
     axis 0 0 0  XYZ
  end
  begin
     id 2 
     name lfemur
     direction 0.34202 -0.939693 0  
     length 7.24894  
     axis 0 0 20  XYZ
    dof rx ry rz
    limits (-160.0 20.0)
           (-70.0 70.0)
           (-60.0 70.0)
  end
  begin
     id 3 
     name ltibia
     direction 0.34202 -0.939693 0   
     length 7.6997   
     axis 0 0 20   XYZ
    dof rx
    limits (-10.0 170.0)
  end
  begin
     id 4 
     name lfoot
     direction 0.100767 -0.276854 0.955614   
     length 2.37556   
     axis -90 7.62852e-016 20   XYZ
    dof rx rz
    limits (-45.0 90.0)
           (-70.0 20.0)
  end
  begin
     id 5 
     name ltoes
     direction 1.53592e-011 -4.21894e-011 1   
     length 1.18363   
     axis -90 7.62852e-016 20   XYZ
    dof rx
    limits (-90.0 20.0)
  end
  begin
     id 6 
     name rhipjoint
     direction -0.556459 -0.742938 0.372017   
     length 2.4012  
     axis 0 0 0  XYZ 
  end
  begin
     id 7 
     name rfemur
     direction -0.34202 -0.939693 0   
     length 7.5119   
     axis 0 0 -20   XYZ
    dof rx ry rz
    limits (-160.0 20.0)
           (-70.0 70.0)
           (-70.0 60.0)
  end
  begin
     id 8 
     name rtibia
     direction -0.34202 -0.939693 0   
     length 7.50155   
     axis 0 0 -20   XYZ
    dof rx
    limits (-10.0 170.0)
 end
 begin
     id 9 
     name rfoot
     direction -0.118427 -0.325376 0.938139   
     length 2.32487  
     axis -90 -7.62852e-016 -20   XYZ
    dof rx rz
    limits (-45.0 90.0)
           (-20.0 70.0)
  end
  begin
     id 10 
     name rtoes
     direction -1.53525e-011 -4.21868e-011 1   
     length 1.15233   
     axis -90 -7.62852e-016 -20   XYZ
    dof rx
    limits (-90.0 20.0)
  end
  begin
     id 11 
     name lowerback
     direction 0.0287568 0.999577 -0.00434502   
     length 2.15243   
     axis 0 0 0   XYZ
    dof rx ry rz
    limits (-20.0 45.0)
           (-30.0 30.0)
           (-30.0 30.0)
  end
  begin
     id 12 
     name upperback
     direction 0.0294009 0.99956 0.00404628   
     length 2.15427   
     axis 0 0 0   XYZ
    dof rx ry rz
    limits (-20.0 45.0)
           (-30.0 30.0)
           (-30.0 30.0)
  end
  begin
     id 13 
     name thorax
     direction 0.0151014 0.999868 0.0059419   
     length 2.14898   
     axis 0 0 0   XYZ
    dof rx ry rz
    limits (-20.0 45.0)
           (-30.0 30.0)
           (-30.0 30.0)
  end
  begin
     id 14 
     name lowerneck
     direction -0.0249197 0.989906 0.139515   
     length 1.6861   
     axis 0 0 0   XYZ
    dof rx ry rz
    limits (-20.0 45.0)
           (-30.0 30.0)
           (-30.0 30.0)
  end
  begin
     id 15 
     name upperneck
     direction 0.0438463 0.988795 -0.142693   
     length 1.71276   
     axis 0 0 0   XYZ
    dof rx ry rz
    limits (-20.0 45.0)
           (-30.0 30.0)
           (-30.0 30.0)
  end
  begin
     id 16
     name head
     direction 0.0148499 0.997845 -0.0639186  
     length 1.7209  
     axis 0 0 0   XYZ
    dof rx ry rz
    limits (-20.0 45.0)
           (-30.0 30.0)
           (-30.0 30.0)
  end
  begin
     id 17 
     name lclavicle
     direction 0.940298 0.323464 -0.105876  
     length 3.9048  
     axis 0 0 0   XYZ
    dof ry rz
    limits (-20.0 10.0)
           (0.0 20.0)
  end
  begin
     id 18 
     name lhumerus
     direction 1 -4.48954e-011 -4.9675e-028   
     length 4.6851   
     axis 180 -30 -90   XYZ
    dof rx ry rz
    limits (-60.0 90.0)
           (-90.0 90.0)
           (-90.0 90.0)
  end
  begin
     id 19
     name lradius
     direction 1 -4.48992e-011 -1.03359e-026   
     length 3.39626   
     axis 180 -30 -90   XYZ
    dof rx
    limits (-10.0 170.0)
  end
  begin
     id 20
     name lwrist
     direction 1 -4.48906e-011 -1.67336e-026   
     length 1.69813   
     axis 9.90442e-015 90 90   XYZ
    dof ry
    limits (-180.0 0.0)
 end
  begin
     id 21 
     name lhand
     direction 1 -4.49006e-011 -3.34673e-026   
     length 0.486078   
     axis 2.1355e-014 90 90   XYZ
    dof rx rz
    limits (-90.0 90.0)
           (-45.0 45.0)
  end
  begin
     id 22 
     name lfingers
     direction 1 -4.48992e-011 -6.69345e-026   
     length 0.391889   
     axis 4.27099e-014 90 90   XYZ
    dof rx
    limits (0.0 90.0)
  end
  begin
     id 23
     name lthumb
     direction 0.707107 -6.34926e-011 0.707107   
     length 0.562676   
     axis -90 45 2.85299e-015   XYZ
    dof rx rz
    limits (-45.0 45.0)
           (-45.0 45.0)
  end
  begin
     id 24 
     name rclavicle
     direction -0.882459 0.414895 -0.221648   
     length 3.44646  
     axis 0 0 0   XYZ 
    dof ry rz
    limits (-10.0 20.0)
           (-20.0 0.0)
  end
  begin
     id 25 
     name rhumerus
     direction -1 -4.48962e-011 -2.37984e-027  
     length 5.55576   
     axis 180 30 90   XYZ
    dof rx ry rz
    limits (-90.0 60.0)
           (-90.0 90.0)
           (-90.0 90.0)
  end
  begin
     id 26 
     name rradius
     direction -1 -4.48982e-011 -6.86791e-027   
     length 3.32774   
     axis 180 30 90   XYZ
    dof rx
    limits (-10.0 170.0)
  end
  begin
     id 27 
     name rwrist
     direction -1 -4.48961e-011 -1.67336e-026   
     length 1.66387   
     axis 9.90442e-015 -90 -90   XYZ
    dof ry
    limits (-180.0 0.0)
  end
  begin
     id 28
     name rhand
     direction -1 -4.4897e-011 -3.34673e-026   
     length 0.507628   
     axis 2.1355e-014 -90 -90   XYZ
    dof rx rz
    limits (-90.0 90.0)
           (-45.0 45.0)
  end
  begin
     id 29
     name rfingers
     direction -1 -4.48854e-011 -6.69345e-026   
     length 0.409263   
     axis 4.27099e-014 -90 -90   XYZ
    dof rx
    limits (0.0 90.0)
  end
  begin
     id 30
     name rthumb
     direction -0.707107 -6.34913e-011 0.707107   
     length 0.587622   
     axis -90 -45 -2.85299e-015   XYZ
    dof rx rz
    limits (-45.0 45.0)
           (-45.0 45.0)
  end
:hierarchy
  begin
    root lhipjoint rhipjoint lowerback
    lhipjoint lfemur
    lfemur ltibia
    ltibia lfoot
    lfoot ltoes
    rhipjoint rfemur
    rfemur rtibia
    rtibia rfoot
    rfoot rtoes
    lowerback upperback
    upperback thorax
    thorax lowerneck lclavicle rclavicle
    lowerneck upperneck
    upperneck head
    lclavicle lhumerus
    lhumerus lradius
    lradius lwrist
    lwrist lhand lthumb
    lhand lfingers
    rclavicle rhumerus
    rhumerus rradius
    rradius rwrist
    rwrist rhand rthumb
    rhand rfingers
  end

#!OML:ASF E:\motion texture\Top Level 1\Subject 1\Session 1\male.ASF
:FULLY-SPECIFIED
:DEGREES
64
root 21.8565 17.5577 5.51861 103.441 -80.9746 -95.2572
lowerback -4.70818 2.20341 7.8961
upperback -0.400602 2.43008 1.60319
thorax 2.49013 1.26385 -2.59104
lowerneck -15.081 -0.959186 -6.46055
upperneck 17.8491 0.429069 -1.71393
head 8.03335 -0.468484 0.531608
rclavicle -1.04362e-015 2.20651e-014
rhumerus -20.938 -15.6571 -78.2917
rradius 47.6053
rwrist -13.8647
rhand -1.95685 -26.7586
rfingers 7.12502
rthumb 23.7148 -55.3156
lclavicle -1.04362e-015 2.20651e-014
lhumerus -35.4669 18.1222 77.8376
lradius 32.4362
lwrist -16.8965
lhand -10.837 22.7536
lfingers 7.12502
lthumb 15.1775 52.1769
rfemur 1.78534 4.12918 34.5293
rtibia 17.2562
rfoot -15.854 -0.15784
rtoes 9.26353
lfemur -31.9156 -0.337695 -5.84503
ltibia 13.5009
lfoot -4.56008 6.94018
ltoes -12.0792
65
root 21.7216 17.5423 5.53142 104.817 -80.9468 -96.7039
lowerback -4.68326 2.20373 7.96199
upperback -0.361574 2.43089 1.52826
thorax 2.52284 1.26823 -2.70502
lowerneck -14.9459 -0.925288 -6.5038
upperneck 18.0039 0.508966 -1.90319
head 8.06135 -0.460477 0.484299
rclavicle -6.21202e-015 4.92986e-014
rhumerus -20.2501 -15.8013 -78.4648
rradius 50.0077
rwrist -15.9239
rhand -1.76963 -26.6656
rfingers 7.12502
rthumb 23.8943 -55.1991
lclavicle -6.21202e-015 4.92986e-014
lhumerus -34.7975 16.6343 79.2589
lradius 33.2337
lwrist -16.4995
lhand -10.1955 22.4244
lfingers 7.12502
lthumb 15.7954 51.8
rfemur 2.01417 4.24328 34.496
rtibia 17.9051
rfoot -16.0196 -0.158832
rtoes 8.39466
lfemur -31.9122 -0.262883 -6.14498
ltibia 14.5744
lfoot -4.13695 6.69295
ltoes -11.5893
66
root 21.5834 17.528 5.54517 106.402 -80.9394 -98.3924
lowerback -4.65935 2.21699 7.99922
upperback -0.306588 2.45024 1.44258
thorax 2.57402 1.28291 -2.81239
lowerneck -14.7958 -0.898144 -6.54376
upperneck 18.1405 0.574778 -2.08067
head 8.0809 -0.457078 0.438777
rclavicle 1.69215e-014 -3.97569e-016
rhumerus -19.5648 -16.0075 -78.6182
rradius 52.3784
rwrist -17.9509
rhand -1.69865 -26.6225
rfingers 7.12502
rthumb 23.9624 -55.1471
lclavicle 1.69215e-014 -3.97569e-016
lhumerus -34.1295 15.1649 80.6109
lradius 34.0003
lwrist -16.2022
lhand -9.61617 22.0348
lfingers 7.12502
lthumb 16.3532 51.3654
rfemur 2.25159 4.39077 34.4359
rtibia 18.6203
rfoot -16.1515 -0.210849
rtoes 7.40735
lfemur -31.7939 -0.357341 -6.39737
ltibia 15.4781
lfoot -3.5568 6.49872
ltoes -10.8662
67
root 21.4429 17.5153 5.55983 108.209 -80.9808 -100.314
lowerback -4.62581 2.23782 7.97623
upperback -0.254167 2.48542 1.33456
thorax 2.61729 1.30499 -2.9087
lowerneck -14.6493 -0.877355 -6.56946
upperneck 18.2858 0.627138 -2.24784
head 8.10428 -0.458416 0.392772
rclavicle -1.96548e-014 -2.42517e-014
rhumerus -18.8877 -16.2769 -78.7536
rradius 54.6909
rwrist -19.9478
rhand -1.71068 -26.6074
rfingers 7.12502
rthumb 23.9509 -55.1335
lclavicle -1.96548e-014 -2.42517e-014
lhumerus -33.4734 13.693 81.8917
lradius 34.7259
lwrist -15.9761
lhand -9.15655 21.5713
lfingers 7.12502
lthumb 16.7957 50.8648
rfemur 2.46389 4.56729 34.3118
rtibia 19.414
rfoot -16.2385 -0.315246
rtoes 6.2697
lfemur -31.5972 -0.612722 -6.63866
ltibia 16.173
lfoot -2.81222 6.34917
ltoes -10.0087
68
root 21.3 17.5051 5.57514 110.33 -81.0968 -102.548
lowerback -4.60507 2.26424 7.854
upperback -0.202172 2.53376 1.20011
thorax 2.66559 1.33323 -2.97578
lowerneck -14.5205 -0.866489 -6.59358
upperneck 18.4455 0.66364 -2.39422
head 8.13587 -0.465691 0.351531
rclavicle 2.34317e-014 2.90226e-014
rhumerus -18.2081 -16.5989 -78.8674
rradius 56.923
rwrist -21.915
rhand -1.74347 -26.5773
rfingers 7.12502
rthumb 23.9194 -55.1076
lclavicle 2.34317e-014 2.90226e-014
lhumerus -32.8262 12.211 83.116
lradius 35.409
lwrist -15.7909
lhand -8.87733 21.0857
lfingers 7.12502
lthumb 17.0645 50.3562
rfemur 2.63181 4.77876 34.0886
rtibia 20.2964
rfoot -16.2703 -0.47017
rtoes 4.96227
lfemur -31.3462 -0.998425 -6.91419
ltibia 16.6643
lfoot -1.96218 6.25173
ltoes -9.11532
